PathFileType	4	(X/Y/Z)	C:\Users\°ÂÌØÂü\Desktop\20210112\bx_n_0_503-Unnamed.trc
DataRate	CameraRate	NumFrames	NumMarkers	Units	OrigDataRate	OrigDataStartFrame	OrigNumFrames
50.00	50.00	       7	0	mm	50.00	125	       333
Frame#	Time	
		

125	2.480	-281.07239	126.53407	1673.12573	-441.27066	290.14978	1408.64636	-672.80634	-6.72084	1026.90320	-668.29639	-9.99726	805.88037	-740.71350	143.28197	574.08301	-663.71490	218.30603	796.14972	-756.87885	275.86966	741.40784	-780.46082	255.85388	637.44067	-715.27386	204.11000	537.33990	-800.17548	262.56909	495.45898	-517.81085	-72.96118	143.22667	-745.20856	72.07734	571.04492	-549.21234	-22.66013	162.64046	-675.57190	51.47221	161.29408	-796.16724	182.32549	183.63060	-766.52533	229.22626	204.63303	-589.36145	207.40009	173.36031	-882.30023	296.10855	144.52655	-553.01379	242.08940	165.00635	-652.09070	291.60660	156.59322	-615.09961	297.45499	158.64226	-528.05463	303.77554	146.40756	-423.17453	-65.81966	1411.80042	-859.74567	95.33707	1094.60132	-794.52954	37.33928	175.39598	-799.31616	-47.29547	483.66733	-601.11853	27.83059	167.88570	-875.88159	-78.69018	141.14127	-753.39154	-72.95327	873.34888	-759.96613	-64.74159	755.67987				-763.57330	-36.99673	613.62488	-766.04871	-34.39547	567.72736	-717.36139	151.82304	220.00443	-675.44263	167.26953	159.34900	-606.19403	-72.48778	157.53535	-648.47491	-68.41708	160.78297	-762.09741	-22.36662	205.68842	-710.90564	13.42474	524.87482	-482.72678	108.64153	1208.50525	-724.07928	66.49695	219.30652	-670.91119	237.68658	1042.12646	-764.44122	285.48288	874.37653				-770.83008	249.01945	572.90533	
126	2.500	-275.71805	126.44598	1666.89636	-437.24881	290.05179	1403.26477	-674.61188	-7.61965	1026.14917	-670.15472	-10.08343	805.75854	-741.88336	142.67606	574.05261	-664.59271	217.69194	796.17035	-757.91254	276.14117	741.53772	-781.52246	255.87190	637.20862	-716.64886	204.03452	537.09473	-801.03943	262.65524	495.06134	-517.83282	-72.87903	143.14296	-746.22723	72.24571	570.99072	-549.43451	-22.58002	162.63240	-675.64026	51.45387	161.47209	-796.12189	182.28210	183.71921	-766.59589	229.24640	204.58986	-588.84656	207.27437	173.31853	-882.38757	296.12848	144.67557	-552.91663	242.16383	165.06441	-652.17920	291.51770	156.96675	-615.01917	297.17242	158.49939	-528.10852	303.79736	146.36969	-419.69489	-65.90031	1406.86243	-860.80231	95.05598	1095.03406	-794.42706	36.98415	175.27074	-799.61829	-47.35534	483.74451	-601.35181	27.82404	167.95607	-875.87213	-78.71808	140.99890	-754.93500	-73.47540	873.73621	-761.52472	-64.81996	755.65479				-765.19995	-37.13554	613.39594	-766.85791	-34.72933	567.61761	-717.46558	151.96010	219.95946	-675.65540	167.51526	159.20110	-606.09509	-72.72240	157.58533	-648.47491	-68.41708	160.78297	-762.14856	-22.35218	205.59503	-711.35974	13.30945	524.88922	-481.66373	108.73747	1203.95752	-723.77820	66.34146	219.29279	-672.35101	237.91811	1041.45776	-765.86780	284.82593	874.03162				-771.26947	249.01196	572.53973	
127	2.520	-270.39551	126.74664	1660.09973	-433.54297	290.00180	1398.02490	-676.11987	-7.09383	1024.84521	-671.49652	-10.35672	805.83313	-742.98901	142.44800	573.35944	-666.49231	217.58688	796.14105	-759.47717	276.17517	741.34912	-782.79041	255.65692	637.01801	-717.37701	203.81265	537.14136	-801.85321	262.85599	495.18164	-517.94464	-72.98583	143.07442	-746.84113	72.20480	570.80353	-549.40381	-22.55042	162.56042	-675.64026	51.45387	161.47209	-796.12158	182.26756	183.72246	-766.61261	229.28003	204.63231	-588.92920	207.12323	173.27940	-882.70685	296.19904	144.65417	-552.95929	241.99261	164.94263	-652.09198	291.56570	156.83435	-615.02130	297.17572	158.45868	-528.02045	303.58081	146.37054	-416.34680	-65.76022	1401.52478	-862.09845	95.09210	1095.28577	-794.44568	37.03540	175.27058	-800.40479	-47.30938	483.45740	-601.33447	27.98303	167.88797	-875.87097	-78.64214	141.18979	-756.35809	-73.54819	873.41748	-762.82983	-65.20178	755.41290				-765.76727	-37.26619	613.54926	-767.58459	-34.99770	567.59662	-717.45135	151.82841	219.90021	-675.65540	167.51526	159.20110	-606.12152	-72.65891	157.60811	-648.56311	-68.36951	160.74559	-762.21545	-22.65987	205.84023	-712.35126	13.32122	524.77789	-480.63788	108.48544	1199.23853	-724.04645	66.37093	219.43716	-673.84674	237.05309	1040.68286	-766.96625	284.94974	874.31946				-772.19232	249.24876	572.47809	
128	2.540	-265.46335	126.93136	1653.78918	-429.81320	289.96246	1392.69067	-677.13623	-6.74412	1023.79205	-672.95911	-9.95952	805.85321	-743.88354	142.89198	573.62653	-668.32666	217.46718	795.91650	-760.60236	276.21835	741.22211	-783.71173	255.36252	636.92804	-718.24457	203.88527	537.34229	-802.57031	262.94891	495.34265	-517.99066	-73.04592	143.03880	-747.55292	72.08199	570.89185	-549.52173	-22.44808	162.59361	-675.70154	51.36415	161.42274	-796.25403	182.25026	183.63171	-766.59772	229.22878	204.57140	-588.98206	207.13571	173.21935	-882.55841	296.24548	144.80028	-553.02130	242.04150	165.15053	-652.24500	291.76785	156.60355	-614.94916	297.13571	158.53410	-528.16223	303.83313	146.29453	-412.44135	-65.71156	1396.33252	-863.03009	94.61304	1095.82849	-794.37610	36.88760	175.05672	-800.95880	-47.97432	483.38541	-601.47357	27.70889	167.87282	-875.94281	-78.74004	141.14670	-758.16235	-73.39510	872.97656	-763.74469	-65.44458	754.98773				-766.00684	-37.29770	613.47797	-768.08154	-34.88118	567.03406	-717.72845	151.84792	219.90581	-675.63635	167.70950	159.48323	-605.88556	-72.81976	157.75623	-648.44000	-68.47729	160.76227	-762.21332	-22.67327	205.76685	-713.20795	13.42804	524.61243	-479.91360	108.41545	1194.83911	-724.06628	66.38713	219.47078	-675.59613	237.31726	1040.16370	-768.77277	284.79074	874.04413				-773.53412	249.03600	572.46368	
129	2.560	-260.65698	127.24519	1647.49927	-426.48901	289.79037	1387.68262	-678.71118	-7.50448	1023.13416	-674.07166	-9.95544	805.90533	-745.39386	143.30235	572.90674	-669.65094	217.36386	796.15796	-762.29242	275.75418	741.02130	-785.19983	255.63542	636.66895	-719.36194	203.76990	537.53467	-803.32056	262.82376	495.08838	-517.92761	-72.98299	143.14261	-748.70233	71.88730	570.54144	-549.51086	-22.52988	162.65887	-675.63910	51.37275	161.51701	-796.22516	182.18361	183.57068	-766.73877	229.15964	204.55574	-589.12189	207.12837	173.34561	-882.52478	296.15894	144.77863	-552.97430	242.01439	165.15446	-652.05536	291.51117	156.83925	-615.14783	297.01553	158.50366	-528.08105	303.81250	146.38322	-409.35004	-65.62393	1391.29187	-863.80090	94.43389	1096.28613	-794.74481	36.42420	175.17754	-801.49390	-48.36559	483.60666	-601.49072	27.72139	167.76184	-875.79388	-78.47688	141.16841	-759.55457	-73.31654	872.44073	-764.64404	-65.57036	754.87506				-766.69214	-37.68868	613.27545	-768.82233	-34.98877	566.97021	-717.72845	151.84792	219.90581	-675.64514	167.74036	159.65280	-605.59045	-72.78969	157.52536	-648.50519	-68.50750	160.68333	-762.21375	-22.78836	205.66891	-713.50964	13.19128	524.76440	-479.22540	108.39283	1190.57117	-724.07928	66.49695	219.30652	-677.00867	237.53426	1039.33032	-771.29529	284.30789	874.00958				-774.11163	248.81137	572.12659	
130	2.580	-256.03250	127.68107	1641.22119	-423.35162	290.04382	1382.99255	-679.76801	-7.68014	1022.48419	-675.22327	-9.90203	805.55011	-745.82104	143.17752	572.90314	-671.64490	217.49957	795.98260	-763.78455	275.78006	740.97876	-786.35773	255.60458	636.48462	-720.07501	203.67192	537.42780	-804.42822	262.79944	495.33817	-517.88635	-72.87172	143.24289	-749.44330	71.67678	570.41132	-549.64136	-22.38169	162.62859	-675.76990	51.34580	161.60072	-796.25403	182.25026	183.63171	-766.75537	229.30382	204.52870	-589.30609	207.02142	173.40660	-882.68610	296.19052	144.63260	-553.15698	242.07211	165.11046	-652.21924	291.68863	156.77364	-615.01245	297.05060	158.51512	-528.15265	303.85306	146.30214	-405.93524	-65.62601	1386.04370	-864.86700	94.01083	1096.44788	-794.62689	36.08517	174.95432	-801.76221	-48.14820	483.32230	-601.46387	27.75826	167.80928	-875.86145	-78.67005	141.04742	-760.38812	-73.47259	872.16937	-765.53601	-65.59832	754.73798				-767.10773	-37.87356	613.03778	-769.16132	-35.22231	567.19305	-717.79468	151.92400	219.86940	-675.87073	167.68082	159.77106	-605.67914	-72.63980	157.80148	-648.47565	-68.45701	160.78496	-762.27228	-22.94428	205.58235	-714.07617	13.40405	524.52252	-478.36679	108.35724	1186.27686	-724.14209	66.13123	219.61525	-678.13770	237.74873	1038.43579	-772.91998	284.62952	874.13684				-775.37860	248.74799	572.17700	
131	2.600	-251.59171	127.93921	1635.23657	-420.41519	289.88922	1378.15186	-680.94666	-7.67101	1021.70795	-676.08069	-9.77759	805.66364	-746.61627	142.75421	573.47540	-673.40594	217.60847	796.40063	-765.78021	275.50519	740.58514	-787.77289	255.67038	636.12537	-720.69458	203.89461	537.50641	-805.13782	262.76523	494.76468	-517.91980	-73.01032	143.17534	-750.63129	71.88245	570.44293	-549.61346	-22.43971	162.61417	-675.59399	51.15951	161.51524	-796.25403	182.25026	183.63171	-766.77191	229.44792	204.50169	-589.44788	206.98889	173.16667	-882.49481	296.22229	144.91576	-553.12128	242.10020	165.08984	-652.21924	291.68863	156.77364	-614.94037	297.05856	158.45564	-528.08508	303.90820	146.39507	-403.14737	-65.09798	1380.67175	-866.01605	93.64124	1096.66895	-794.63489	36.12936	174.89871	-802.14539	-48.20806	482.89450	-601.57874	27.78277	167.68643	-875.78961	-78.57214	141.09050	-761.17157	-73.40043	872.01801	-766.08142	-65.33492	754.48401				-767.70630	-37.85592	612.89307	-769.65460	-35.21072	566.86432	-717.79468	151.92400	219.86940	-675.96906	167.83783	159.84143	-605.78674	-72.66243	157.94698	-648.41577	-68.42521	160.86082	-762.27228	-22.94428	205.58235	-714.81506	13.15158	524.73541	-477.69080	108.28643	1182.18542	-724.37903	66.31523	219.47864	-679.46259	237.63338	1037.59692	-774.58093	284.34326	873.79822				-776.34302	248.99745	572.23193	
